<?xml version="1.0" encoding="UTF-8" standalone="no"?>
<!-- Created with Inkscape (http://www.inkscape.org/) -->

<svg
   width="380"
   height="525"
   viewBox="0 0 380 525"
   version="1.1"
   id="svg58221"
   xml:space="preserve"
   xmlns="http://www.w3.org/2000/svg"
   xmlns:svg="http://www.w3.org/2000/svg"><defs
     id="defs58218" /><path
     style="display:inline;opacity:1;fill:none;stroke:#ff0000;stroke-width:25;stroke-linecap:round;stroke-linejoin:round;stroke-dasharray:none;stroke-opacity:1"
     d="m 267.5,385 -77.5,77.5 -77.5,-77.5"
     id="path4" /><path
     style="fill:none;fill-rule:evenodd;stroke:#ff0000;stroke-width:25;stroke-linecap:round;stroke-dasharray:none;stroke-dashoffset:0;stroke-opacity:1"
     id="path1"
     d="M 64.429622,161.35521 A 130,130 0 0 1 190.45239,65.002468 130,130 0 0 1 315.80148,162.23002 130,130 0 0 1 253.82104,308.25746" /><path
     style="fill:none;fill-rule:evenodd;stroke:#ff0000;stroke-width:25;stroke-linecap:round;stroke-dasharray:none;stroke-dashoffset:0;stroke-opacity:1"
     d="m 227.5,376.5 c 0,-44.98792 0,-54.24361 26.32106,-68.24253"
     id="path2" /><path
     style="fill:none;fill-rule:evenodd;stroke:#ff0000;stroke-width:25;stroke-linecap:round;stroke-dasharray:none;stroke-dashoffset:0;stroke-opacity:1"
     id="path3"
     d="m 135.9363,184.89453 a 55,55 0 0 1 50.09815,-44.75149 55,55 0 0 1 56.0137,37.08081 55,55 0 0 1 -21.62877,63.59809" /><path
     style="fill:none;fill-rule:evenodd;stroke:#ff0000;stroke-width:25;stroke-linecap:round;stroke-dasharray:none;stroke-dashoffset:0;stroke-opacity:1"
     d="m 152.5,376.5 c 0,-90.20354 37.49167,-113.97679 67.9194,-135.67805"
     id="path5" /></svg>
