<?xml version="1.0" encoding="UTF-8" standalone="no"?>
<!-- Created with Inkscape (http://www.inkscape.org/) -->

<svg
   width="380"
   height="525"
   viewBox="0 0 380 525"
   version="1.1"
   id="svg58221"
   xml:space="preserve"
   xmlns="http://www.w3.org/2000/svg"
   xmlns:svg="http://www.w3.org/2000/svg"><defs
     id="defs58218" /><g
     id="layer1"
     transform="translate(-95.565328,39.609332)"><path
       style="display:inline;opacity:1;fill:none;stroke:#ff0000;stroke-width:25;stroke-linecap:round;stroke-linejoin:round;stroke-dasharray:none;stroke-opacity:1"
       d="m 363.06531,345.39066 -77.5,77.5 -77.5,-77.5"
       id="path4" /><path
       style="fill:none;fill-rule:evenodd;stroke:#ff0000;stroke-width:25;stroke-linecap:round;stroke-dasharray:none;stroke-dashoffset:0;stroke-opacity:1"
       id="path1"
       d="M 159.99495,121.74588 A 130,130 0 0 1 286.01772,25.393136 130,130 0 0 1 411.36681,122.62069 130,130 0 0 1 349.38637,268.64813" /><path
       style="fill:none;fill-rule:evenodd;stroke:#ff0000;stroke-width:25;stroke-linecap:round;stroke-dasharray:none;stroke-dashoffset:0;stroke-opacity:1"
       d="m 323.06531,336.89066 c 0,-44.98792 0,-54.24361 26.32106,-68.24253"
       id="path2" /><path
       style="fill:none;fill-rule:evenodd;stroke:#ff0000;stroke-width:25;stroke-linecap:round;stroke-dasharray:none;stroke-dashoffset:0;stroke-opacity:1"
       id="path3"
       d="m 231.50163,145.2852 a 55,55 0 0 1 50.09815,-44.75149 55,55 0 0 1 56.0137,37.08081 55,55 0 0 1 -21.62877,63.59809" /><path
       style="fill:none;fill-rule:evenodd;stroke:#ff0000;stroke-width:25;stroke-linecap:round;stroke-dasharray:none;stroke-dashoffset:0;stroke-opacity:1"
       d="m 248.06531,336.89066 c 0,-90.20354 37.49167,-113.97679 67.9194,-135.67805"
       id="path5" /></g></svg>
