<?xml version="1.0" encoding="UTF-8" standalone="no"?>
<!-- Created with Inkscape (http://www.inkscape.org/) -->

<svg
   width="720"
   height="380"
   viewBox="0 0 720 380"
   version="1.1"
   id="svg58221"
   xml:space="preserve"
   xmlns="http://www.w3.org/2000/svg"
   xmlns:svg="http://www.w3.org/2000/svg"><defs
     id="defs58218" /><path
     style="display:inline;opacity:1;fill:none;stroke:#ff0000;stroke-width:25;stroke-linecap:round;stroke-linejoin:round;stroke-dasharray:none;stroke-opacity:1"
     d="M 659.43588,140.46666 V 250.06821 H 549.83433"
     id="path4" /><path
     id="path2"
     style="color:#000000;display:inline;fill:#ff0000;fill-opacity:1;fill-rule:evenodd;stroke:none;stroke-linecap:round;stroke-opacity:1;-inkscape-stroke:none"
     d="m 192.32445,47.166321 c -41.51688,-0.113536 -86.61237,10.156054 -133.630867,34.83008 -6.11244,3.207291 -8.468055,10.762064 -5.261719,16.875 3.207327,6.113579 10.763545,8.469379 16.876952,5.261719 145.768784,-76.495482 252.643144,-1.86007 297.460944,54.32616 27.27129,34.99388 39.3514,73.92821 34.33984,100.92384 -2.50577,13.49781 -8.64237,24.03994 -19.56445,31.92773 -10.92209,7.8878 -27.29697,13.18946 -50.77344,13.18945 -24.94438,0 -41.00233,-6.32959 -51.11718,-15.52343 -10.11486,-9.19384 -15.24518,-21.91659 -15.87696,-38.20117 -1.08921,-28.07529 13.05764,-65.40607 38.33203,-98.11328 l -21.14062,-13.61719 c -27.49407,35.80978 -43.57417,76.55432 -42.17188,112.69922 0.82671,21.30893 8.33287,41.45654 24.04102,55.73437 15.70815,14.27784 38.66285,22.02149 67.93359,22.02148 27.26045,1e-5 49.20333,-6.21804 65.41211,-17.92382 16.20878,-11.70578 26.01589,-28.83147 29.50586,-47.63086 6.97995,-37.59877 -8.74913,-81.77626 -39.20118,-120.85157 -10.09303,-12.95114 -22.09829,-25.24479 -35.50586,-36.57031 27.82996,-19.155507 60.41492,-31.725349 95.45118,-32.091792 51.53424,-0.538986 109.55561,24.260359 168.00586,96.191402 4.35354,5.35784 12.22619,6.17196 17.58399,1.81836 5.3591,-4.35369 6.17327,-12.22783 1.81835,-17.58594 C 572.99449,78.743913 507.08684,48.80533 447.17406,49.431947 403.49549,49.88878 363.85974,66.321788 331.19163,90.547181 293.16598,64.621331 245.70328,47.312295 192.32445,47.166321 Z" /><path
     id="path5"
     style="color:#000000;fill:#ff0000;fill-opacity:1;fill-rule:evenodd;stroke-linecap:round;-inkscape-stroke:none"
     d="m 208.43968,114.2132 c -38.20194,-0.49818 -82.4375,10.76799 -131.070318,40.64062 -5.882574,3.61305 -7.7224,11.31077 -4.109375,17.19336 3.613121,5.88377 11.31231,7.72374 17.195313,4.10938 96.78308,-59.44887 165.85011,-38.76693 206.39453,-5.54102 7.77825,6.37422 14.41771,13.32404 19.9043,20.26563 -4.75653,6.42226 -8.75292,12.88178 -11.67968,19.21289 -5.12929,11.0956 -7.99219,22.50581 -3.47657,33.69336 4.51563,11.18755 17.29881,17.48827 30.76758,17.48827 10.90702,10e-6 21.68323,-6.97291 25.5332,-16.4082 3.84998,-9.43528 2.92755,-19.46247 -0.0176,-29.83984 -3.83907,-15.07681 -19.7169,-42.87668 -45.18552,-63.74805 -25.41393,-20.82656 -60.96033,-36.50181 -104.25586,-37.0664 z m 241.9668,7.51171 c -30.7799,-0.39747 -59.68232,9.93567 -83.53907,24.4629 -0.84995,0.51756 -1.63967,1.0798 -2.47656,1.60742 l 16.08008,19.40625 c 25.35372,-15.29278 56.07122,-24.41517 87.05469,-18.80664 31.2231,5.6519 63.94576,25.90856 93.98046,73.99999 3.6564,5.85662 11.36854,7.63971 17.22462,3.98243 5.85523,-3.6577 7.6365,-11.36956 3.97851,-17.22461 -32.75945,-52.45428 -71.99147,-78.34467 -110.73242,-85.35742 -7.26392,-1.3149 -14.46726,-1.97859 -21.57031,-2.07032 z m -119.32422,92.67774 c 1.11867,2.61086 2.09394,5.13953 2.75,7.45117 2.00147,7.05233 2.66141,11.63748 0.91992,13.56641 -1.56424,1.7326 -8.92234,1.35767 -9.97265,-0.99023 -1.20955,-2.70386 -0.57717,-6.13526 2.98632,-13.84376 0.90627,-1.96044 2.02287,-4.03376 3.31641,-6.18359 z" /></svg>
