<?xml version="1.0" encoding="UTF-8" standalone="no"?>
<!-- Created with Inkscape (http://www.inkscape.org/) -->

<svg
   width="720"
   height="380"
   viewBox="0 0 720 380"
   version="1.1"
   id="svg58221"
   xml:space="preserve"
   xmlns="http://www.w3.org/2000/svg"
   xmlns:svg="http://www.w3.org/2000/svg"><defs
     id="defs58218" /><g
     id="layer1"
     transform="translate(-3.3153143,74.109859)"><path
       style="display:inline;opacity:1;fill:none;stroke:#ff0000;stroke-width:25;stroke-linecap:round;stroke-linejoin:round;stroke-dasharray:none;stroke-opacity:1"
       d="M 662.75119,66.356804 V 175.95835 H 553.14964"
       id="path4" /><path
       id="path2"
       style="color:#000000;display:inline;fill:#ff0000;fill-opacity:1;fill-rule:evenodd;stroke:none;stroke-linecap:round;stroke-opacity:1;-inkscape-stroke:none"
       d="m 195.63976,-26.943538 c -41.51688,-0.113536 -86.61237,10.156054 -133.630863,34.83008 -6.11244,3.207291 -8.468055,10.762064 -5.261719,16.875 3.207327,6.113584 10.763545,8.469381 16.876952,5.261718 145.76878,-76.495481 252.64314,-1.860068 297.46094,54.326166 27.27129,34.993874 39.3514,73.928204 34.33984,100.923834 -2.50577,13.49781 -8.64237,24.03994 -19.56445,31.92773 -10.92209,7.8878 -27.29697,13.18946 -50.77344,13.18945 -24.94438,0 -41.00233,-6.32959 -51.11718,-15.52343 -10.11486,-9.19384 -15.24518,-21.91659 -15.87696,-38.20117 -1.08921,-28.07529 13.05764,-65.40607 38.33203,-98.113283 l -21.14062,-13.61719 c -27.49407,35.809783 -43.57417,76.554323 -42.17188,112.699223 0.82671,21.30893 8.33287,41.45654 24.04102,55.73437 15.70815,14.27784 38.66285,22.02149 67.93359,22.02148 27.26045,10e-6 49.20333,-6.21804 65.41211,-17.92382 16.20878,-11.70578 26.01589,-28.83147 29.50586,-47.63086 C 436.98494,152.23699 421.25586,108.0595 390.80381,68.984193 380.71078,56.033052 368.70552,43.7394 355.29795,32.413882 383.12791,13.258374 415.71287,0.6885325 450.74913,0.3220886 502.28337,-0.2168965 560.30474,24.582448 618.75499,96.51349 c 4.35354,5.35784 12.22619,6.17196 17.58399,1.81836 5.3591,-4.353687 6.17327,-12.227831 1.81835,-17.585939 C 576.3098,4.634054 510.40215,-25.304529 450.48937,-24.677912 406.8108,-24.221079 367.17505,-7.7880705 334.50694,16.437322 296.48129,-9.488528 249.01859,-26.797564 195.63976,-26.943538 Z" /><path
       id="path5"
       style="color:#000000;fill:#ff0000;fill-opacity:1;fill-rule:evenodd;stroke-linecap:round;-inkscape-stroke:none"
       d="m 211.75499,40.103338 c -38.20194,-0.498173 -82.4375,10.767991 -131.070314,40.640625 -5.882574,3.613052 -7.7224,11.310769 -4.109375,17.193357 3.613121,5.88377 11.31231,7.72374 17.195313,4.10938 96.783076,-59.448868 165.850106,-38.766926 206.394526,-5.54102 7.77825,6.37422 14.41771,13.32404 19.9043,20.26563 -4.75653,6.42226 -8.75292,12.88178 -11.67968,19.21289 -5.12929,11.0956 -7.99219,22.50581 -3.47657,33.69336 4.51563,11.18755 17.29881,17.48827 30.76758,17.48827 10.90702,1e-5 21.68323,-6.97291 25.5332,-16.4082 3.84998,-9.43528 2.92755,-19.46247 -0.0176,-29.83984 C 357.3573,125.84098 341.47947,98.04111 316.01085,77.169739 290.59692,56.343182 255.05052,40.667933 211.75499,40.103338 Z m 241.9668,7.511714 c -30.7799,-0.397472 -59.68232,9.93567 -83.53907,24.462896 -0.84995,0.517567 -1.63967,1.079802 -2.47656,1.607424 l 16.08008,19.406248 c 25.35372,-15.292782 56.07122,-24.415166 87.05469,-18.806636 31.2231,5.651898 63.94576,25.908556 93.98046,73.999986 3.6564,5.85662 11.36854,7.63971 17.22462,3.98243 5.85523,-3.6577 7.6365,-11.36956 3.97851,-17.22461 C 553.26507,82.588511 514.03305,56.698121 475.2921,49.685369 468.02818,48.370475 460.82484,47.706785 453.72179,47.615052 Z M 334.39757,140.29279 c 1.11867,2.61086 2.09394,5.13953 2.75,7.45117 2.00147,7.05233 2.66141,11.63748 0.91992,13.56641 -1.56424,1.7326 -8.92234,1.35767 -9.97265,-0.99023 -1.20955,-2.70386 -0.57717,-6.13526 2.98632,-13.84376 0.90627,-1.96044 2.02287,-4.03376 3.31641,-6.18359 z" /></g></svg>
