<?xml version="1.0" encoding="UTF-8" standalone="no"?>
<!-- Created with Inkscape (http://www.inkscape.org/) -->

<svg
   width="725"
   height="270"
   viewBox="0 0 725 270"
   version="1.1"
   id="svg58221"
   xml:space="preserve"
   xmlns="http://www.w3.org/2000/svg"
   xmlns:svg="http://www.w3.org/2000/svg"><defs
     id="defs58218" /><g
     id="layer1"
     transform="translate(-4.1039286,11.427441)"><path
       style="display:inline;opacity:1;fill:none;stroke:#ff0000;stroke-width:25.0001;stroke-linecap:round;stroke-linejoin:round;stroke-dasharray:none;stroke-opacity:1"
       d="M 647.9311,70.206182 667.34255,178.07538 559.47326,197.48617"
       id="path4" /><path
       style="display:inline;fill:none;fill-rule:evenodd;stroke:#ff0000;stroke-width:25;stroke-linecap:round;stroke-dashoffset:2.5;stroke-opacity:1"
       id="path3"
       d="M 68.144293,76.138734 A 237.5,187.5 0 0 1 324.10676,89.054528" /><path
       style="display:inline;fill:none;fill-rule:evenodd;stroke:#ff0000;stroke-width:25;stroke-linecap:round;stroke-dashoffset:2.5;stroke-opacity:1"
       id="path5"
       d="M 68.145877,160.76678 A 162.5,112.5 0 0 1 204.35776,128.53314 162.5,112.5 0 0 1 324.10391,183.84131" /><path
       style="display:inline;fill:none;fill-rule:evenodd;stroke:#ff0000;stroke-width:25;stroke-linecap:round;stroke-dashoffset:2.5;stroke-opacity:1"
       id="path1"
       d="m -617.45057,96.428485 a 237.5,187.5 0 0 1 293.3495,-7.373957"
       transform="scale(-1,1)" /><path
       style="display:inline;fill:none;fill-rule:evenodd;stroke:#ff0000;stroke-width:25;stroke-linecap:round;stroke-dashoffset:2.5;stroke-opacity:1"
       id="path2"
       d="m -580.06195,160.76678 a 162.5,112.5 0 0 1 136.21189,-32.23364 162.5,112.5 0 0 1 119.74615,55.30817"
       transform="scale(-1,1)" /></g></svg>
