<?xml version="1.0" encoding="UTF-8" standalone="no"?> <!-- Created with Inkscape (http://www.inkscape.org/) --> <svg width="22" height="22" viewBox="0 0 22 22" version="1.1" id="svg1" xmlns="http://www.w3.org/2000/svg" xmlns:svg="http://www.w3.org/2000/svg"> <circle style="fill:none;fill-rule:evenodd;stroke:#121212;stroke-width:5.5;stroke-linecap:round;stroke-linejoin:round;stroke-dasharray:none;stroke-opacity:1" id="path2" cx="11" cy="11" r="5" /> <path style="fill:none;fill-opacity:1;fill-rule:evenodd;stroke:#121212;stroke-width:5.5;stroke-linecap:butt;stroke-linejoin:round;stroke-dasharray:none;stroke-opacity:1" d="m 11,-0.5 -1e-6,7.5" id="path4" transform="rotate(45, 11, 11)" /> <path style="fill:none;fill-opacity:1;fill-rule:evenodd;stroke:#121212;stroke-width:5.5;stroke-linecap:butt;stroke-linejoin:round;stroke-dasharray:none;stroke-opacity:1" d="m 11,-0.5 -1e-6,7.5" id="path1" transform="rotate(135, 11, 11)" /> <path style="fill:none;fill-opacity:1;fill-rule:evenodd;stroke:#121212;stroke-width:5.5;stroke-linecap:butt;stroke-linejoin:round;stroke-dasharray:none;stroke-opacity:1" d="m 11,-0.5 -1e-6,7.5" id="path3" transform="rotate(225, 11, 11)" /> <path style="fill:none;fill-opacity:1;fill-rule:evenodd;stroke:#121212;stroke-width:5.5;stroke-linecap:butt;stroke-linejoin:round;stroke-dasharray:none;stroke-opacity:1" d="m 11,-0.5 -1e-6,7.5" id="path5" transform="rotate(315, 11, 11)" /> <circle style="fill:none;fill-rule:evenodd;stroke:#e5e5e5;stroke-width:3.5;stroke-linecap:round;stroke-linejoin:round;stroke-dasharray:none;stroke-opacity:1" id="circle2" cx="11" cy="11" r="5" /> <path style="fill:none;fill-opacity:1;fill-rule:evenodd;stroke:#e5e5e5;stroke-width:3.5;stroke-linecap:butt;stroke-linejoin:round;stroke-dasharray:none;stroke-opacity:1" d="M 11,0.5 V 6" id="path6" transform="rotate(45, 11, 11)" /> <path style="fill:none;fill-opacity:1;fill-rule:evenodd;stroke:#e5e5e5;stroke-width:3.5;stroke-linecap:butt;stroke-linejoin:round;stroke-dasharray:none;stroke-opacity:1" d="M 11,0.5 V 6" id="path7" transform="rotate(135, 11, 11)" /> <path style="fill:none;fill-opacity:1;fill-rule:evenodd;stroke:#e5e5e5;stroke-width:3.5;stroke-linecap:butt;stroke-linejoin:round;stroke-dasharray:none;stroke-opacity:1" d="M 11,0.5 V 6" id="path8" transform="rotate(225, 11, 11)" /> <path style="fill:none;fill-opacity:1;fill-rule:evenodd;stroke:#e5e5e5;stroke-width:3.5;stroke-linecap:butt;stroke-linejoin:round;stroke-dasharray:none;stroke-opacity:1" d="M 11,0.5 V 6" id="path9" transform="rotate(315, 11, 11)" /></svg>