<?xml version="1.0" encoding="UTF-8" standalone="no"?> <svg class="icon" viewBox="0 0 512 512" version="1.1" id="svg3" xmlns="http://www.w3.org/2000/svg" xmlns:svg="http://www.w3.org/2000/svg"> <defs id="defs3" /> <path d="M 448,256 C 448,150 362,64 256,64 150,64 64,150 64,256 c 0,106 86,192 192,192 106,0 192,-86 192,-192 z" fill="none" stroke-miterlimit="10" stroke-width="32" id="path1" style="display:inline;fill:none;stroke:#e5e5e5;stroke-opacity:1" /> <path style="display:inline;fill:none;stroke:#e5e5e5;stroke-width:32;stroke-linecap:round;stroke-linejoin:round;stroke-opacity:1" id="path5" d="m 352.83097,298.25017 a 100,100 0 0 1 -103.68339,56.88266 100,100 0 0 1 -85.42816,-81.77967 100,100 0 0 1 52.30591,-106.0659 100,100 0 0 1 116.88554,17.9904" /> <path style="display:inline;fill:#e5e5e5;fill-opacity:1;stroke:#e5e5e5;stroke-width:24.0004;stroke-linecap:round;stroke-linejoin:round;stroke-dasharray:none;stroke-opacity:1" d="m 306.04006,209.31855 50.91169,-50.91169 2.82844,53.74012 z" id="path6" /></svg>