<?xml version="1.0" encoding="UTF-8" standalone="no"?> <svg class="icon" viewBox="0 0 512 512" version="1.1" id="svg3" xmlns="http://www.w3.org/2000/svg" xmlns:svg="http://www.w3.org/2000/svg"> <defs id="defs3" /> <path d="M 448,256 C 448,150 362,64 256,64 150,64 64,150 64,256 c 0,106 86,192 192,192 106,0 192,-86 192,-192 z" fill="none" stroke-miterlimit="10" stroke-width="32" id="path1" style="display:inline;fill:none;stroke:#e5e5e5;stroke-opacity:1" /> <path style="display:inline;fill:none;stroke:#e5e5e5;stroke-width:32;stroke-linecap:round;stroke-linejoin:round;stroke-opacity:1" id="path5" d="M 334.70482,289.7978 A 80,80 0 0 1 251.7581,335.30393 80,80 0 0 1 183.41558,269.8802 80,80 0 0 1 225.2603,185.02748 80,80 0 0 1 318.76874,199.4198" /> <path style="display:inline;fill:#e5e5e5;fill-opacity:1;stroke:#e5e5e5;stroke-width:24.0004;stroke-linecap:round;stroke-linejoin:round;stroke-dasharray:none;stroke-opacity:1" d="m 293.31289,224.87565 50.91169,-50.91169 2.82844,53.74012 z" id="path6" /></svg>