<?xml version="1.0" encoding="UTF-8" standalone="no"?>
<!-- Created with Inkscape (http://www.inkscape.org/) -->

<svg
   width="585"
   height="550"
   viewBox="0 0 585 550"
   version="1.1"
   id="svg1"
   xml:space="preserve"
   xmlns="http://www.w3.org/2000/svg"
   xmlns:svg="http://www.w3.org/2000/svg"><defs
     id="defs1" /><path
     id="path1"
     style="color:#000000;display:inline;opacity:1;fill:#000000;fill-rule:evenodd;stroke-width:25;stroke-dasharray:none"
     d="M 233.00974,48.34567 C 217.59569,64.240831 203.62776,83.438661 191.49411,105.27927 156.25271,168.71384 135,254.92802 135,350.00194 135,403.66063 141.77642,454.49005 154.00973,500 h 26.05664 c -12.73216,-44.83776 -20.06445,-95.84778 -20.06445,-150 0,-91.32089 20.72207,-173.86258 53.3418,-232.57814 9.96813,-17.942659 20.94643,-33.517469 32.67773,-46.541019 z m 203.98048,0 -13.01172,22.539061 c 11.73142,13.02316 22.71009,28.59729 32.67774,46.539069 32.61972,58.71556 53.3418,141.25725 53.3418,232.57814 0,54.15028 -7.3323,105.1603 -20.06446,150 h 26.0586 C 528.22549,454.49005 535,403.66062 535,350.00194 535,254.92802 513.74922,168.71384 478.5078,105.27927 466.37415,83.438661 452.40547,64.240831 436.99022,48.34567 Z" /><path
     style="display:inline;opacity:1;fill:none;fill-rule:evenodd;stroke:#000000;stroke-width:25;stroke-opacity:1"
     d="M 163.75895,487.5 H 47.5"
     id="path5" /><path
     style="display:inline;opacity:1;fill:none;fill-rule:evenodd;stroke:#000000;stroke-width:25"
     d="M 231.3764,70.518681 335,250 440.19678,67.793771"
     id="path9" /></svg>
