<?xml version="1.0" encoding="UTF-8" standalone="no"?>
<!-- Created with Inkscape (http://www.inkscape.org/) -->

<svg
   width="690"
   height="650"
   viewBox="0 0 690 650"
   version="1.1"
   id="svg58221"
   xml:space="preserve"
   xmlns="http://www.w3.org/2000/svg"
   xmlns:svg="http://www.w3.org/2000/svg"><defs
     id="defs58218" /><path
     style="display:inline;opacity:1;fill:none;stroke:#ff0000;stroke-width:25;stroke-linecap:round;stroke-linejoin:round;stroke-dasharray:none;stroke-opacity:1"
     d="m 472.5,317.5 77.5,-77.5 77.5,77.5"
     id="path4" /><path
     style="fill:none;stroke:#ff0000;stroke-width:25;stroke-linecap:round;stroke-dasharray:none;stroke-dashoffset:5"
     id="path5"
     d="M 512.5,325 A 187.5,187.5 0 0 1 361.57943,508.89724 187.5,187.5 0 0 1 151.77258,396.75315 a 187.5,187.5 0 0 1 69.05799,-227.6537 187.5,187.5 0 0 1 236.75194,23.31802" /><path
     style="fill:none;stroke:#ff0000;stroke-width:25;stroke-linecap:round;stroke-dasharray:none;stroke-dashoffset:5"
     id="path6"
     d="M 587.5,325 A 262.5,262.5 0 0 1 376.21121,582.45614 262.5,262.5 0 0 1 82.481619,425.45441 262.5,262.5 0 0 1 179.1628,106.73923 262.5,262.5 0 0 1 510.61552,139.38446" /></svg>
