<?xml version="1.0" encoding="UTF-8" standalone="no"?>
<!-- Created with Inkscape (http://www.inkscape.org/) -->

<svg
   width="500"
   height="600"
   viewBox="0 0 500 600"
   version="1.1"
   id="svg1"
   xml:space="preserve"
   xmlns="http://www.w3.org/2000/svg"
   xmlns:svg="http://www.w3.org/2000/svg"><defs
     id="defs1" /><g
     id="layer1"
     transform="translate(54.999995,205)"><path
       id="path1"
       style="color:#000000;opacity:1;fill:#000000;fill-rule:evenodd;stroke-width:25;stroke-dasharray:none"
       d="m 194.99708,-155.00004 c -57.85625,0 -108.261784,41.84425 -143.503211,105.278891 C 16.25243,13.713494 -5,99.92851 -5,195.00253 -5,248.66126 1.77635,299.49 14.00967,345 H 40.06619 C 27.33401,300.16219 20.00183,249.15286 20.00183,195.00253 c 0,-91.32099 20.72178,-173.863574 53.34154,-232.579189 32.61975,-58.71562 75.95727,-92.421521 121.65371,-92.421521 45.69643,0 89.03981,33.705901 121.65957,92.421521 32.61975,58.715615 53.34154,141.258199 53.34154,232.579189 0,54.15033 -7.33219,105.15966 -20.06436,149.99747 h 26.05846 c 12.23332,-45.50999 19.00774,-96.33874 19.00774,-149.99747 0,-95.07402 -21.25047,-181.289036 -56.49193,-244.723679 C 303.26667,-113.15579 252.85333,-155.00004 194.99708,-155.00004 Z" /><path
       style="opacity:1;fill:none;fill-opacity:1;fill-rule:evenodd;stroke:#000000;stroke-width:24.9999;stroke-dasharray:none;stroke-opacity:1"
       d="M 7.49994,270.00029 H 159.9992"
       id="path5" /></g></svg>
