<?xml version="1.0" encoding="UTF-8" standalone="no"?>
<!-- Created with Inkscape (http://www.inkscape.org/) -->

<svg
   width="500"
   height="600"
   viewBox="0 0 500 600"
   version="1.1"
   id="svg1"
   xml:space="preserve"
   xmlns="http://www.w3.org/2000/svg"
   xmlns:svg="http://www.w3.org/2000/svg"><defs
     id="defs1" /><path
     id="path1"
     style="color:#000000;opacity:1;fill:#000000;fill-rule:evenodd;stroke-width:25;stroke-dasharray:none"
     d="M 250,50 C 192.14375,50 141.73822,91.84425 106.49679,155.27889 71.25243,218.71349 50,304.92851 50,400.00253 50,453.66126 56.77635,504.49 69.00967,550 H 95.06619 C 82.33401,505.16219 75,454.15286 75,400 c 0,-91.32099 20.72178,-173.86357 53.34154,-232.57919 32.61975,-58.71562 75.95727,-92.42152 121.65371,-92.42152 45.69643,0 89.03981,33.7059 121.65957,92.42152 32.61975,58.71562 53.34154,141.2582 53.34154,232.57919 0,54.15033 -7.33219,105.15966 -20.06436,150 h 26.05846 c 12.23332,-45.50999 19.00774,-96.33874 19.00774,-150 0,-95.07402 -21.25047,-181.28904 -56.49193,-244.72368 C 358.26667,91.84421 307.85333,50 250,50 Z" /><path
     style="opacity:1;fill:none;fill-opacity:1;fill-rule:evenodd;stroke:#000000;stroke-width:25;stroke-dasharray:none;stroke-opacity:1"
     d="M 62.5,475 H 215"
     id="path5" /></svg>
