<?xml version="1.0" encoding="UTF-8" standalone="no"?>
<!-- Created with Inkscape (http://www.inkscape.org/) -->

<svg
   width="530"
   height="600"
   viewBox="0 0 530 600"
   version="1.1"
   id="svg1"
   xml:space="preserve"
   xmlns="http://www.w3.org/2000/svg"
   xmlns:svg="http://www.w3.org/2000/svg"><defs
     id="defs1" /><path
     id="path1"
     style="color:#000000;opacity:1;fill:#000000;fill-rule:evenodd;stroke-width:25;stroke-dasharray:none"
     d="M 280,50 C 222.1408,50 171.73527,91.84425 136.49384,155.27889 101.25241,218.71349 80,304.92851 80,400 80,453.66126 86.77632,504.49 99.00964,550 h 26.05652 C 112.33398,505.16219 105.0018,454.15286 105.0018,400.00253 c 0,-91.32099 20.72179,-173.86357 53.34154,-232.57919 32.61976,-58.71562 75.95727,-92.42152 121.65371,-92.42152 45.69643,0 89.03982,33.7059 121.65957,92.42152 32.61975,58.71562 53.34154,141.2582 53.34154,232.57919 0,54.15033 -7.33218,105.15966 -20.06435,150 h 26.05846 C 473.22558,504.49001 480,453.66126 480,400.00253 480,304.92851 458.74953,218.71349 423.50808,155.27885 388.26664,91.84421 337.8533,50 280,50 Z" /><path
     id="path9"
     style="color:#000000;fill:#000000;fill-rule:evenodd;stroke-width:3.77953;-inkscape-stroke:none"
     d="M 70.59567,395.8203 47.03903,404.18358 98.77146,550 h 13.27148 l 11.77539,-4.17968 z" /></svg>
