<?xml version="1.0" encoding="UTF-8" standalone="no"?>
<!-- Created with Inkscape (http://www.inkscape.org/) -->

<svg
   width="585"
   height="600"
   viewBox="0 0 585 600"
   version="1.1"
   id="svg1"
   xml:space="preserve"
   xmlns="http://www.w3.org/2000/svg"
   xmlns:svg="http://www.w3.org/2000/svg"><defs
     id="defs1" /><path
     id="path1"
     style="color:#000000;opacity:1;fill:#000000;fill-rule:evenodd;stroke-width:25;stroke-dasharray:none"
     d="M 335,50 C 277.14079,50 226.73526,91.84425 191.49383,155.27889 156.2524,218.7135 135,304.92851 135,400 135,453.66126 141.77632,504.49 154.00963,550 h 26.05652 c -12.73218,-44.83781 -20.06436,-95.84714 -20.06436,-150 0,-91.32099 20.72179,-173.86357 53.34154,-232.57919 32.61976,-58.71562 75.95727,-92.42152 121.65371,-92.42152 45.69643,0 89.03982,33.7059 121.65957,92.42152 32.61975,58.71562 53.34154,141.2582 53.34154,232.57919 0,54.15033 -7.33218,105.15966 -20.06435,150 h 26.05846 C 528.22557,504.49 535,453.66126 535,400 535,304.92851 513.74952,218.7135 478.50807,155.27885 443.26663,91.84421 392.85329,50 335,50 Z" /><path
     style="opacity:1;fill:none;fill-rule:evenodd;stroke:#000000;stroke-width:25;stroke-opacity:1"
     d="M 163.75895,537.5 H 47.5"
     id="path5" /></svg>
